<svg width="150" height="150" viewBox="0 0 150 150" fill="none" xmlns="http://www.w3.org/2000/svg">
<path d="M60.2931 1.20428C47.4178 4.14808 37.2951 9.23283 27.2612 17.8858C15.8066 27.6985 6.8383 42.2391 2.9313 57.4041C0.356233 67.3952 0.356233 83.1847 2.9313 93.0865C9.23577 117.083 26.3733 136.351 49.0161 144.915C55.2318 147.324 66.1536 149.732 70.5934 149.732H73.1684L72.9909 119.135L72.7245 88.6262L53.8999 88.3586C41.9125 88.2694 34.9864 88.4478 34.9864 88.983C34.9864 90.8564 30.9906 93.5326 28.238 93.5326C24.5086 93.5326 21.7559 91.124 21.1344 87.1989C20.424 82.7386 23.6206 78.9028 28.1492 78.9028C31.4346 78.9028 34.9864 81.2221 34.9864 83.4523C34.9864 84.3443 38.2719 84.612 51.68 84.612H68.2847L53.6335 75.8698C40.4917 67.9304 38.8046 67.2168 37.2063 68.2872C34.8976 69.8037 32.2338 69.7145 29.8363 68.0196C23.7982 63.8269 27.1724 54.2819 34.6313 54.2819C36.9399 54.2819 41.2021 59.2774 41.2021 62.0428C41.2909 64.3622 42.4452 65.2542 55.143 72.7475C62.8682 77.2971 69.2614 80.8653 69.3502 80.6869C69.5278 80.5085 65.7096 73.5504 61.0035 65.2542C52.8343 50.9813 52.2127 50.0892 49.6377 50C43.7772 49.8216 40.9357 41.9715 45.1979 37.7788C48.3945 34.4781 52.8343 34.7458 55.7646 38.314C58.4284 41.4362 58.606 42.6851 56.8301 46.0749C55.587 48.3943 55.8534 49.1079 64.1113 63.5593L72.7245 78.6351L72.9909 60.4371L73.1684 42.3283L70.5046 40.1873C68.4623 38.5816 67.8407 37.4219 67.8407 35.0134C67.8407 30.8207 68.9951 28.8582 72.2805 27.5201C74.4116 26.628 75.4771 26.628 77.6082 27.5201C82.8471 29.7502 83.7351 35.9054 79.3841 40.0089L76.7203 42.5067L76.8979 60.4371L77.1642 78.3675L85.6886 63.4701C93.8578 49.1971 94.1242 48.4835 92.9698 46.1641C89.418 38.9384 99.0967 32.0696 104.691 37.7788C109.042 42.0607 106.112 49.8216 100.162 50C97.676 50.0892 97.0544 50.8029 93.1474 57.7609C90.7499 61.9536 86.8429 68.8225 84.5343 72.926C82.1368 77.0294 80.3609 80.5085 80.4497 80.6869C80.6273 80.7761 87.0205 77.2078 94.6569 72.7475C107.532 65.2542 108.687 64.3622 108.687 62.0428C108.687 58.8314 113.038 54.2819 116.145 54.2819C119.697 54.2819 123.249 57.9393 123.249 61.686C123.249 67.2168 118.188 70.6066 113.038 68.5549C110.729 67.5736 109.663 68.0196 98.7415 74.4425C92.2595 78.1891 85.7774 82.025 84.2679 82.917C81.604 84.612 81.6928 84.612 97.8536 84.612H114.014L116.589 81.7574C121.207 76.5834 129.11 79.3488 129.11 86.1285C129.11 92.9973 121.562 95.8519 116.501 90.8564L113.837 88.1802H95.2785H76.7203V119.045V150L83.1135 149.286C99.6295 147.681 116.589 139.295 128.31 126.896C150.243 103.524 155.127 71.3202 141.097 42.0607C130.885 20.9188 112.061 5.84299 89.862 1.20428C82.3144 -0.401431 67.4855 -0.401431 60.2931 1.20428Z" fill="white"/>
</svg>
